<?xml version="1.0" encoding="utf-8"?>
<!-- Generator: Adobe Illustrator 21.0.0, SVG Export Plug-In . SVG Version: 6.00 Build 0)  -->
<svg version="1.1" id="Layer_1" xmlns="http://www.w3.org/2000/svg" xmlns:xlink="http://www.w3.org/1999/xlink" x="0px" y="0px"
	 viewBox="0 0 243.3 92.1" style="enable-background:new 0 0 243.3 92.1;" xml:space="preserve">
<style type="text/css">
	.st0{fill:url(#SVGID_1_);}
</style>
<g>
	<path d="M0,83.4V69.7c16.2-0.9,16.6-29.7,16.6-30l13.7,0.4c0,0.4-0.3,10-3.7,19.9C21.7,74.4,12.3,82.7,0,83.4z"/>
	<path d="M52,84.8c-2.2,0-4.4-0.2-6.6-0.6c-9.2-1.7-17.2-6.9-22.4-14.7c-5.3-7.7-7.2-17-5.5-26.2s6.9-17.2,14.7-22.4l0,0
		c7.7-5.3,17-7.2,26.2-5.5s17.2,6.9,22.4,14.7c5.3,7.7,7.2,17,5.5,26.2s-6.9,17.2-14.7,22.4C65.8,82.7,59,84.8,52,84.8z M40,32.2
		c-4.7,3.2-7.9,8-8.9,13.6C30,51.4,31.2,57,34.4,61.7c3.2,4.7,8,7.9,13.6,8.9c5.6,1.1,11.2-0.1,15.9-3.3c4.7-3.2,7.9-8,8.9-13.6
		c1.1-5.6-0.1-11.2-3.3-15.9c-3.2-4.7-8-7.9-13.6-8.9C50.3,27.8,44.7,29,40,32.2L40,32.2z"/>
	
		<linearGradient id="SVGID_1_" gradientUnits="userSpaceOnUse" x1="31.0819" y1="22.0958" x2="18.6989" y2="92.3232" gradientTransform="matrix(1 0 0 -1 0 92.2)">
		<stop  offset="0.1141" style="stop-color:#000000"/>
		<stop  offset="0.2003" style="stop-color:#151515"/>
		<stop  offset="0.3102" style="stop-color:#363836"/>
		<stop  offset="0.433" style="stop-color:#4C5149"/>
		<stop  offset="0.5651" style="stop-color:#606B56"/>
		<stop  offset="0.7047" style="stop-color:#72865C"/>
		<stop  offset="0.8508" style="stop-color:#83A557"/>
		<stop  offset="1" style="stop-color:#8DC63F"/>
	</linearGradient>
	<path class="st0" d="M24.3,71.3C23.5,70.4,6,48.2,18,0l13.3,3.3C21.1,44.2,34.8,62.5,35,62.7L24.3,71.3z"/>
</g>
<g>
	<path d="M129.3,56c0,8.2-4.6,13.8-15,13.8c-5.3,0-8.7-1.1-11.4-2.8V30.5h5.6v15.4c1.8-2.1,4.4-3.4,8.1-3.4
		C124.3,42.5,129.3,47.1,129.3,56z M123.6,56.1c0-5.9-2.7-9-7.6-9c-4.6,0-7.5,3.9-7.5,7.3v9.5c1.1,0.7,3,1.4,6.2,1.4
		C120.4,65.2,123.6,62.1,123.6,56.1z"/>
	<path d="M138.5,37.4c-1.6,0-2.9-1.2-2.9-2.8c0-1.6,1.3-2.7,2.9-2.7c1.7,0,2.9,1.2,2.9,2.7C141.5,36.1,140.2,37.4,138.5,37.4z
		 M141.3,64.8c0.9,0.2,2,0.3,3.5,0.3v4.2c-0.7,0.1-1.9,0.3-4.3,0.3c-3.5,0-4.8-0.9-4.8-4.1V43.1h5.6L141.3,64.8L141.3,64.8z"/>
	<path d="M158.1,47.5v14.3c0,2.7,1.2,3.4,3.2,3.4s4.2-0.5,5.1-0.8V69c-1.1,0.3-3.5,0.9-6.4,0.9c-5,0-7.4-1.6-7.4-7.6V47.6h-5.1v-4.5
		h5.1v-7.6h5.6v7.6h8.3v4.5L158.1,47.5L158.1,47.5z"/>
	<path d="M200.7,58.5c0,6.5-4.4,10.7-14.1,10.7h-14v-1.8V32.5v-1.8h10.8c10.3,0,14.9,3.6,14.9,9.7c0,4.5-2.3,7.1-6,8.4
		C197,49.9,200.7,52.9,200.7,58.5z M175.9,33v14.8h9.3c6.2,0,10.2-2,10.2-7.2c0-4.8-3.2-7.7-12-7.7h-7.5V33z M197.6,58.6
		c0-5.4-4.2-8.2-10.5-8.2h-11.2v16.1h10.9C194.4,66.6,197.6,63.8,197.6,58.6z"/>
	<path d="M207.9,36.1c-1,0-1.7-0.7-1.7-1.7s0.8-1.7,1.7-1.7c1,0,1.8,0.8,1.8,1.7S208.9,36.1,207.9,36.1z M209.4,66.8
		c1,0.2,2.2,0.2,3.9,0.2v2.3c-0.7,0.1-1.7,0.2-3.5,0.2c-2.6,0-3.5-0.7-3.5-3V43.1h3v23.7H209.4z"/>
	<path d="M216.9,56.2c0-8.9,5.5-13.7,13.2-13.7s13.2,4.9,13.2,13.7c0,8.6-5.5,13.6-13.2,13.6S216.9,64.8,216.9,56.2z M220,56.2
		c0,7.1,4,11,10.1,11c6.2,0,10.1-3.9,10.1-11s-4-11.1-10.1-11.1C224,45,220,49.1,220,56.2z"/>
</g>
<g>
	<path d="M109.3,88.8l-0.1,0.6c-0.2,0-0.4,0.1-0.8,0.1c-0.7,0-0.9-0.3-0.8-1l0.1-0.4c-0.6,0.9-1.6,1.5-2.8,1.5
		c-1.2,0-1.9-0.7-1.9-1.8c0-1.4,1-2.4,3-2.4c0.9,0,1.6,0.1,2,0.3l0.1-0.6c0.1-1.3-0.4-2-1.7-2c-1.2,0-1.8,0.6-2.1,1.5l-0.7-0.1
		c0.4-1.2,1.1-2,2.9-2s2.6,0.9,2.4,2.6l-0.4,3.7C108.5,88.8,108.8,88.8,109.3,88.8z M107.8,86.6v-0.4c-0.4-0.1-1.1-0.3-1.9-0.3
		c-1.5,0-2.3,0.7-2.3,1.7c0,0.8,0.5,1.2,1.4,1.2C106.5,88.9,107.6,87.8,107.8,86.6z"/>
	<path d="M113.7,82.4c2,0,2.4,1,2.4,1.7l-0.7,0.1c0-0.7-0.4-1.2-1.7-1.2c-1.4,0-1.9,0.6-1.9,1.4c0,2,4.2,0.6,4.2,3
		c0,1.1-0.7,2.1-2.9,2.1c-1.2,0-2-0.3-2.5-0.7l0.2-0.7c0.4,0.3,1.2,0.8,2.3,0.8c1.6,0,2.1-0.5,2.1-1.3c0-2-4.2-0.6-4.2-3.1
		C111,83.3,111.9,82.4,113.7,82.4z"/>
	<path d="M125.5,82.4c2,0,2.4,1,2.4,1.7l-0.7,0.1c0-0.7-0.4-1.2-1.7-1.2c-1.4,0-1.9,0.6-1.9,1.4c0,2,4.2,0.6,4.2,3
		c0,1.1-0.7,2.1-2.9,2.1c-1.2,0-2-0.3-2.5-0.7l0.2-0.7c0.4,0.3,1.2,0.8,2.3,0.8c1.6,0,2.1-0.5,2.1-1.3c0-2-4.2-0.6-4.2-3.1
		C122.8,83.3,123.6,82.4,125.5,82.4z"/>
	<path d="M130.4,88.8c0.2,0,0.5,0.1,0.8,0.1l-0.1,0.6c-0.2,0-0.4,0.1-0.8,0.1c-0.5,0-0.7-0.1-0.7-0.5c0-0.1,0-0.3,0-0.4l0.7-6h0.7
		L130.4,88.8z M131,80.9c-0.3,0-0.5-0.2-0.5-0.5c0-0.4,0.3-0.7,0.6-0.7c0.3,0,0.5,0.2,0.5,0.5C131.6,80.6,131.3,80.9,131,80.9z"/>
	<path d="M144.2,88.8l-0.1,0.6c-0.2,0-0.4,0.1-0.8,0.1c-0.7,0-0.9-0.2-0.8-0.8l0.4-3.5c0.2-1.3-0.3-2.1-1.5-2.1s-2.1,1.1-2.2,2.1
		l-0.5,4.2h-0.8l0.5-4.1c0.1-1.3-0.3-2.2-1.5-2.2s-2.1,1.1-2.2,2.1l-0.5,4.2h-0.8l0.7-6.1c-0.2-0.1-0.4-0.1-0.8-0.1l0.1-0.6
		c0.2,0,0.3-0.1,0.6-0.1c0.7,0,1,0.3,0.9,1.2v0.1c0.5-0.7,1.3-1.3,2.3-1.3c1.2,0,1.9,0.6,2.1,1.6c0.5-0.9,1.4-1.6,2.5-1.6
		c1.6,0,2.3,1.1,2.1,2.8l-0.4,3.6C143.4,88.8,143.8,88.8,144.2,88.8z"/>
	<path d="M152.4,85.3c0,2.6-1.3,4.2-3.8,4.2c-0.8,0-1.4-0.2-1.8-0.4l-0.3,2.8h-0.8l1-8.7c-0.2-0.1-0.5-0.1-0.8-0.1l0.1-0.6
		c0.1,0,0.3-0.1,0.6-0.1c0.6,0,1,0.4,0.9,1.2c0.5-0.7,1.3-1.2,2.3-1.2C151.5,82.4,152.4,83.5,152.4,85.3z M151.6,85.4
		c0-1.6-0.7-2.4-2-2.4s-2.2,1-2.3,2l-0.4,3.4c0.4,0.2,0.9,0.4,1.8,0.4C150.4,88.9,151.6,87.8,151.6,85.4z"/>
	<path d="M155.3,79.3h0.8l-1.1,9.5c0.2,0.1,0.5,0.1,1,0.1l-0.1,0.6c-0.2,0-0.5,0-0.8,0c-0.6,0-0.9-0.2-0.9-0.6c0-0.1,0-0.4,0.1-0.6
		L155.3,79.3z"/>
	<path d="M163.6,85c0,0.4-0.1,0.8-0.1,1.1h-4.9v0.4c0,1.6,0.8,2.4,2.2,2.4c1.1,0,2-0.5,2.2-0.8l0.1,0.7c-0.4,0.3-1.3,0.8-2.5,0.8
		c-1.8,0-2.8-1.1-2.8-3c0-2.5,1.4-4.1,3.4-4.1C162.8,82.4,163.6,83.6,163.6,85z M162.8,85.5c0.2-1.7-0.6-2.5-1.7-2.5
		c-1.2,0-2.2,0.8-2.5,2.5H162.8z"/>
	<path d="M176.3,88.8l-0.1,0.6c-0.2,0-0.4,0.1-0.8,0.1c-0.7,0-0.9-0.3-0.8-1l0.1-0.4c-0.6,0.9-1.6,1.5-2.8,1.5
		c-1.2,0-1.9-0.7-1.9-1.8c0-1.4,1-2.4,3-2.4c0.9,0,1.6,0.1,2,0.3l0.1-0.6c0.1-1.3-0.4-2-1.7-2c-1.2,0-1.8,0.6-2.1,1.5l-0.7-0.1
		c0.4-1.2,1.1-2,2.9-2s2.6,0.9,2.4,2.6l-0.4,3.7C175.6,88.8,175.8,88.8,176.3,88.8z M174.8,86.6v-0.4c-0.4-0.1-1.1-0.3-1.9-0.3
		c-1.5,0-2.3,0.7-2.3,1.7c0,0.8,0.5,1.2,1.4,1.2C173.5,88.9,174.7,87.8,174.8,86.6z"/>
	<path d="M180.8,82.4c2,0,2.4,1,2.4,1.7l-0.7,0.1c0-0.7-0.4-1.2-1.7-1.2c-1.4,0-1.9,0.6-1.9,1.4c0,2,4.2,0.6,4.2,3
		c0,1.1-0.7,2.1-2.9,2.1c-1.2,0-2-0.3-2.5-0.7l0.2-0.7c0.4,0.3,1.2,0.8,2.3,0.8c1.6,0,2.1-0.5,2.1-1.3c0-2-4.2-0.6-4.2-3.1
		C178.1,83.3,178.9,82.4,180.8,82.4z"/>
	<path d="M196.1,88.8l-0.1,0.6c-0.2,0-0.4,0.1-0.8,0.1c-0.7,0-0.9-0.3-0.8-1l0.1-0.4c-0.6,0.9-1.6,1.5-2.8,1.5
		c-1.2,0-1.9-0.7-1.9-1.8c0-1.4,1-2.4,3-2.4c0.9,0,1.6,0.1,2,0.3l0.1-0.6c0.1-1.3-0.4-2-1.7-2c-1.2,0-1.8,0.6-2.1,1.5l-0.7-0.1
		c0.4-1.2,1.1-2,2.9-2s2.6,0.9,2.4,2.6l-0.4,3.7C195.4,88.8,195.7,88.8,196.1,88.8z M194.7,86.6v-0.4c-0.4-0.1-1.1-0.3-1.9-0.3
		c-1.5,0-2.3,0.7-2.3,1.7c0,0.8,0.5,1.2,1.4,1.2C193.3,88.9,194.5,87.8,194.7,86.6z"/>
	<path d="M198.9,87.8c-0.1,0.9,0.2,1.1,0.8,1.1s0.8-0.1,1.1-0.2v0.7c-0.2,0.1-0.6,0.2-1.3,0.2c-0.9,0-1.5-0.3-1.3-1.7l0.5-4.6h-1.2
		l0.1-0.6h1.2l0.2-2h0.8l-0.2,2h2.1l-0.1,0.6h-2.1L198.9,87.8z"/>
	<path d="M208.3,89.7c0,1.4-1.1,2.4-3.5,2.4c-2,0-2.8-0.6-2.8-1.7c0-0.9,0.6-1.4,1.1-1.8c-0.3-0.2-0.5-0.5-0.5-0.9
		c0-0.8,0.5-1.2,1.2-1.6c-0.4-0.3-0.6-0.8-0.6-1.4c0-1.3,1-2.4,2.7-2.4c0.6,0,1,0.1,1.4,0.3c0.3-0.9,0.9-1.3,1.9-1.3V82
		c-0.8,0-1.2,0.3-1.5,0.9c0.3,0.3,0.5,0.8,0.5,1.3c0,1.3-1,2.4-2.7,2.4c-0.5,0-0.9-0.1-1.2-0.3c-0.7,0.4-0.8,0.7-0.8,1.1
		c0,0.5,0.3,0.7,1,0.7h2.3C207.8,88.2,208.3,88.9,208.3,89.7z M207.6,89.9c0-0.6-0.4-1-1.2-1h-2.3c-0.1,0-0.2,0-0.3,0
		c-0.5,0.3-1,0.7-1,1.4c0,0.7,0.6,1.2,2.2,1.2C206.7,91.5,207.6,90.8,207.6,89.9z M203.9,84.7c0,0.9,0.6,1.4,1.6,1.4
		c1.2,0,1.9-0.6,1.9-1.7c0-0.9-0.6-1.4-1.6-1.4C204.7,83,203.9,83.6,203.9,84.7z"/>
	<path d="M215.3,88l0.1,0.7c-0.5,0.4-1.2,0.9-2.7,0.9c-1.7,0-2.8-1-2.8-3c0-2.4,1.3-4.2,3.5-4.2c1.6,0,2.3,0.8,2.3,2
		c0,0.1,0,0.2,0,0.3l-0.7,0.1c0.1-1.1-0.5-1.7-1.6-1.7c-1.6,0-2.7,1.3-2.7,3.5c0,1.6,0.8,2.4,2.1,2.4
		C214.1,88.9,214.9,88.3,215.3,88z"/>
</g>
</svg>
